<svg xmlns="http://www.w3.org/1000/svg" version="1.1" xmlns:xlink="http://www.w3.org/1000/xlink" xmlns:svgjs="http://svgjs.dev/svgjs" width="2000" height="1196" viewBox="0 0 1000 1100"><g transform="matrix(1,0,0,1,-1.2121212121212466,-0.6624210309431646)"><svg viewBox="0 0 200 237" data-background-color="#ffffff" preserveAspectRatio="xMidYMid meet" height="1196" width="2000" xmlns="http://www.w3.org/2000/svg" xmlns:xlink="http://www.w3.org/1999/xlink"><g id="tight-bounds" transform="matrix(1,0,0,1,0.2400000000000091,0.13126570596448062)"><svg viewBox="0 0 395.52 236.73746858807104" height="236.73746858807104" width="395.52"><g><svg viewBox="0 0 412.99987105178775 247.2" height="236.73746858807104" width="395.52"><g transform="matrix(1,0,0,1,165.79987105178773,0)"></g><g transform="matrix(1,0,0,1,0,56.572338)"><svg viewBox="0 0 134.05532399999998 134.05532399999998" height="134.05532399999998" width="134.05532399999998"><g><svg></svg></g><g id="icon-0"><svg viewBox="0 0 134.05532399999998 134.05532399999998" height="134.05532399999998" width="134.05532399999998"><g><rect width="121.8910446" height="121.8910446" x="6.082139699999992" y="6.082139699999992" fill="#0e54ae" data-fill-palette-color="accent"></rect><rect width="121.8910446" height="121.8910446" x="12.164279399999991" y="-7.105427357601002e-15" fill="#0e54ae" opacity="0.5" data-fill-palette-color="accent"></rect></g><g transform="matrix(1,0,0,1,21.345672874422647,17.37754199999999)"><svg viewBox="0 0 91.36397825115469 99.30024" height="99.30024" width="91.36397825115469"><g><svg xmlns="http://www.w3.org/2000/svg" data-name="Layer 1" viewBox="4.93 1.0402409194083384 90.1306310853582 97.95975908059167" x="0" y="0" height="99.30024" width="91.36397825115469" class="icon-cg-0" data-fill-palette-color="quaternary" id="cg-0"><path d="M54.52 93.52H29.94L24.47 99 4.93 80 18.92 66A21.34 21.34 0 0 1 41 61l3.07 1.08H63a6 6 0 0 1 6 6.14A6.12 6.12 0 0 1 62.76 74H51.4a2.31 2.31 0 0 0 0 4.63H62.76A10.8 10.8 0 0 0 73.59 68.41s0-0.1 0-0.14L84.09 56.45a6.36 6.36 0 0 1 8.73-0.85 6.19 6.19 0 0 1 0.72 8.83l-21 24a14.72 14.72 0 0 1-11.09 5ZM81.18 38.78a6 6 0 0 0 0.31 1.92 6 6 0 0 1-5.74 7.91A6 6 0 0 0 70 52.81a6 6 0 0 1-9.29 3 6 6 0 0 0-7.15 0 6 6 0 0 1-9.29-3 6 6 0 0 0-5.79-4.2 6 6 0 0 1-5.74-7.91 6 6 0 0 0-2.21-6.8 6 6 0 0 1 0-9.77 6 6 0 0 0 2.21-6.8 6 6 0 0 1 5.74-7.91 6 6 0 0 0 5.79-4.2 6 6 0 0 1 9.29-3 6 6 0 0 0 7.15 0 6 6 0 0 1 9.29 3 6 6 0 0 0 5.79 4.2 6 6 0 0 1 5.74 7.91 6 6 0 0 0 2.21 6.8 6 6 0 0 1 0 9.77A6 6 0 0 0 81.18 38.78ZM65.4 22.57a3.34 3.34 0 0 0-4.72 0l-5.79 5.79L53.51 27a3.34 3.34 0 0 0-4.72 4.72l1.38 1.38 2.36 2.36a3.34 3.34 0 0 0 4.72 0l2.36-2.36 5.79-5.79A3.34 3.34 0 0 0 65.4 22.57Z" fill="#ffffff" data-fill-palette-color="quaternary"></path></svg></g></svg></g></svg></g></svg></g></svg></g><defs></defs></svg><rect width="395.52" height="236.73746858807104" fill="none" stroke="none" visibility="hidden"></rect></g></svg></g></svg>